<svg id="visual" viewBox="0 0 900 600" width="900" height="600" xmlns="http://www.w3.org/2000/svg" xmlns:xlink="http://www.w3.org/1999/xlink" version="1.1"><rect x="0" y="0" width="900" height="600" fill="#040e27"></rect><path d="M0 359L129 400L257 446L386 384L514 398L643 449L771 400L900 427L900 601L771 601L643 601L514 601L386 601L257 601L129 601L0 601Z" fill="#020614"></path><path d="M0 469L129 472L257 458L386 469L514 437L643 408L771 396L900 472L900 601L771 601L643 601L514 601L386 601L257 601L129 601L0 601Z" fill="#03081c"></path><path d="M0 467L129 437L257 458L386 449L514 494L643 451L771 494L900 470L900 601L771 601L643 601L514 601L386 601L257 601L129 601L0 601Z" fill="#040924"></path><path d="M0 532L129 538L257 485L386 519L514 505L643 506L771 511L900 527L900 601L771 601L643 601L514 601L386 601L257 601L129 601L0 601Z" fill="#050a2b"></path><path d="M0 557L129 553L257 561L386 565L514 529L643 564L771 535L900 547L900 601L771 601L643 601L514 601L386 601L257 601L129 601L0 601Z" fill="#060a32"></path></svg>