<svg id="visual" viewBox="0 0 900 600" width="900" height="600" xmlns="http://www.w3.org/2000/svg" xmlns:xlink="http://www.w3.org/1999/xlink" version="1.1"><path d="M0 85L16.7 84C33.3 83 66.7 81 100 75C133.3 69 166.7 59 200 54C233.3 49 266.7 49 300 56C333.3 63 366.7 77 400 78C433.3 79 466.7 67 500 65C533.3 63 566.7 71 600 76C633.3 81 666.7 83 700 76C733.3 69 766.7 53 800 50C833.3 47 866.7 57 883.3 62L900 67L900 0L883.3 0C866.7 0 833.3 0 800 0C766.7 0 733.3 0 700 0C666.7 0 633.3 0 600 0C566.7 0 533.3 0 500 0C466.7 0 433.3 0 400 0C366.7 0 333.3 0 300 0C266.7 0 233.3 0 200 0C166.7 0 133.3 0 100 0C66.7 0 33.3 0 16.7 0L0 0Z" fill="#1d3c69"></path><path d="M0 169L16.7 170C33.3 171 66.7 173 100 170C133.3 167 166.7 159 200 144C233.3 129 266.7 107 300 105C333.3 103 366.7 121 400 136C433.3 151 466.7 163 500 164C533.3 165 566.7 155 600 151C633.3 147 666.7 149 700 143C733.3 137 766.7 123 800 125C833.3 127 866.7 145 883.3 154L900 163L900 65L883.3 60C866.7 55 833.3 45 800 48C766.7 51 733.3 67 700 74C666.7 81 633.3 79 600 74C566.7 69 533.3 61 500 63C466.7 65 433.3 77 400 76C366.7 75 333.3 61 300 54C266.7 47 233.3 47 200 52C166.7 57 133.3 67 100 73C66.7 79 33.3 81 16.7 82L0 83Z" fill="#152f54"></path><path d="M0 313L16.7 309C33.3 305 66.7 297 100 304C133.3 311 166.7 333 200 340C233.3 347 266.7 339 300 328C333.3 317 366.7 303 400 301C433.3 299 466.7 309 500 318C533.3 327 566.7 335 600 326C633.3 317 666.7 291 700 282C733.3 273 766.7 281 800 287C833.3 293 866.7 297 883.3 299L900 301L900 161L883.3 152C866.7 143 833.3 125 800 123C766.7 121 733.3 135 700 141C666.7 147 633.3 145 600 149C566.7 153 533.3 163 500 162C466.7 161 433.3 149 400 134C366.7 119 333.3 101 300 103C266.7 105 233.3 127 200 142C166.7 157 133.3 165 100 168C66.7 171 33.3 169 16.7 168L0 167Z" fill="#0e2240"></path><path d="M0 397L16.7 393C33.3 389 66.7 381 100 380C133.3 379 166.7 385 200 390C233.3 395 266.7 399 300 392C333.3 385 366.7 367 400 358C433.3 349 466.7 349 500 359C533.3 369 566.7 389 600 386C633.3 383 666.7 357 700 348C733.3 339 766.7 347 800 352C833.3 357 866.7 359 883.3 360L900 361L900 299L883.3 297C866.7 295 833.3 291 800 285C766.7 279 733.3 271 700 280C666.7 289 633.3 315 600 324C566.7 333 533.3 325 500 316C466.7 307 433.3 297 400 299C366.7 301 333.3 315 300 326C266.7 337 233.3 345 200 338C166.7 331 133.3 309 100 302C66.7 295 33.3 303 16.7 307L0 311Z" fill="#0a1b33"></path><path d="M0 511L16.7 518C33.3 525 66.7 539 100 539C133.3 539 166.7 525 200 518C233.3 511 266.7 511 300 510C333.3 509 366.7 507 400 512C433.3 517 466.7 529 500 531C533.3 533 566.7 525 600 519C633.3 513 666.7 509 700 504C733.3 499 766.7 493 800 497C833.3 501 866.7 515 883.3 522L900 529L900 359L883.3 358C866.7 357 833.3 355 800 350C766.7 345 733.3 337 700 346C666.7 355 633.3 381 600 384C566.7 387 533.3 367 500 357C466.7 347 433.3 347 400 356C366.7 365 333.3 383 300 390C266.7 397 233.3 393 200 388C166.7 383 133.3 377 100 378C66.7 379 33.3 387 16.7 391L0 395Z" fill="#0a192e"></path><path d="M0 601L16.7 601C33.3 601 66.7 601 100 601C133.3 601 166.7 601 200 601C233.3 601 266.7 601 300 601C333.3 601 366.7 601 400 601C433.3 601 466.7 601 500 601C533.3 601 566.7 601 600 601C633.3 601 666.7 601 700 601C733.3 601 766.7 601 800 601C833.3 601 866.7 601 883.3 601L900 601L900 527L883.3 520C866.7 513 833.3 499 800 495C766.7 491 733.3 497 700 502C666.7 507 633.3 511 600 517C566.7 523 533.3 531 500 529C466.7 527 433.3 515 400 510C366.7 505 333.3 507 300 508C266.7 509 233.3 509 200 516C166.7 523 133.3 537 100 537C66.7 537 33.3 523 16.7 516L0 509Z" fill="#0a1729"></path></svg>